<svg width="70" height="67" viewBox="0 0 70 67" fill="none" xmlns="http://www.w3.org/2000/svg">
<path d="M0.93103 58.2482H23.9587V66.0689H0.93103V58.2482Z" fill="white"/>
<path d="M65.4209 20.3459V45.1298C65.4209 50.0517 61.4171 54.0559 56.4952 54.0559H8.92571C4.00385 54.0559 0 50.0517 0 45.1298V20.3459C0 15.424 4.00385 11.4198 8.92571 11.4198H34.8519C35.3662 11.4198 35.7829 11.8365 35.7829 12.3508C35.7829 12.8651 35.3662 13.2819 34.8519 13.2819H8.92571C5.03098 13.2819 1.86208 16.4508 1.86208 20.3459V45.1298C1.86208 49.0249 5.03098 52.1938 8.92571 52.1938H56.4952C60.39 52.1938 63.5589 49.0249 63.5589 45.1298V20.3459C63.5589 19.8316 63.9756 19.4148 64.4899 19.4148C65.0042 19.4148 65.4209 19.8316 65.4209 20.3459ZM69.366 1.91981V13.9057C69.366 14.4527 69.058 14.9361 68.5623 15.167C68.0651 15.3987 67.4975 15.3231 67.0793 14.9715L62.8762 11.4414V13.7429C62.8762 14.8915 61.9418 15.8262 60.7933 15.8262H40.2869C39.1384 15.8262 38.204 14.8915 38.204 13.7429V2.0833C38.204 0.934765 39.1384 0 40.2869 0H60.7933C61.9418 0 62.8762 0.934765 62.8762 2.0833V4.38483L67.079 0.854696C67.4976 0.502762 68.0655 0.427534 68.5615 0.658432C69.058 0.888958 69.366 1.37236 69.366 1.91981ZM67.5039 2.92906L62.544 7.09528C62.2662 7.32804 61.8793 7.37906 61.5519 7.22637C61.2238 7.07368 61.0141 6.74447 61.0141 6.38248V2.0833C61.0141 1.96152 60.9151 1.86208 60.7933 1.86208H40.2869C40.1651 1.86208 40.0661 1.96152 40.0661 2.0833V13.7425C40.0661 13.8643 40.1651 13.9638 40.2869 13.9638H60.7933C60.9151 13.9638 61.0141 13.8643 61.0141 13.7425V9.443C61.0141 9.08101 61.2242 8.75179 61.5519 8.5991C61.8796 8.44641 62.2666 8.49706 62.544 8.72982L67.5039 12.896V2.92906ZM65.4209 58.2482V66.069C65.4209 66.5833 65.0042 67 64.4899 67H0.931042C0.416734 67 0 66.5833 0 66.069V58.2482C0 57.7339 0.416734 57.3172 0.931042 57.3172H64.4899C65.0042 57.3172 65.4209 57.7339 65.4209 58.2482ZM63.5589 59.1792H1.86208V65.1379H63.5589V59.1792Z" fill="#FFDC10"/>
<path d="M28 39.8256V25.6652C28 24.3317 29.491 23.5411 30.5948 24.289L41.0408 31.3692C42.0139 32.0288 42.0139 33.462 41.0408 34.1212L30.5948 41.2014C29.4914 41.9497 28 41.1591 28 39.8256Z" fill="white"/>
</svg>
