<svg width="81" height="69" viewBox="0 0 81 69" fill="none" xmlns="http://www.w3.org/2000/svg">
<path d="M65.4252 65.6069H60.5038C60.1544 65.6069 59.8711 65.3236 59.8711 64.9742C59.8711 64.6247 60.1544 64.3414 60.5038 64.3414H65.4252C65.7746 64.3414 66.0579 64.6247 66.0579 64.9742C66.0579 65.3236 65.7746 65.6069 65.4252 65.6069Z" fill="white"/>
<path d="M69.8842 26.2183V18.9466C69.8842 18.4249 69.4615 18.0022 68.9399 18.0022C68.4182 18.0022 67.9955 18.4249 67.9955 18.9466V26.2183C67.9955 26.74 68.4182 27.1627 68.9399 27.1627C69.4615 27.1627 69.8842 26.74 69.8842 26.2183Z" fill="#FFDC10"/>
<path d="M6.33037 45.7236C6.85204 45.7236 7.27475 45.3009 7.27475 44.7792V9.0986C7.27475 8.69138 7.60604 8.35971 8.01326 8.35971H45.8969C46.4186 8.35971 46.8413 7.93701 46.8413 7.41533C46.8413 6.89365 46.4186 6.47095 45.8969 6.47095H8.01326C6.56458 6.47095 5.38599 7.64954 5.38599 9.0986V44.7792C5.38599 45.3009 5.80869 45.7236 6.33037 45.7236Z" fill="#FFDC10"/>
<path d="M46.558 42.657H11.7628V12.5675H45.8969C46.4186 12.5675 46.8413 12.1448 46.8413 11.6231C46.8413 11.1014 46.4186 10.6787 45.8969 10.6787H10.8184C10.2967 10.6787 9.87402 11.1014 9.87402 11.6231V43.601C9.87402 44.1227 10.2967 44.5454 10.8184 44.5454H46.558C47.0796 44.5454 47.5023 44.1227 47.5023 43.601C47.5023 43.0797 47.0796 42.657 46.558 42.657Z" fill="#FFDC10"/>
<path d="M65.3961 26.2183V18.9466C65.3961 18.4249 64.9734 18.0022 64.4518 18.0022C63.9301 18.0022 63.5074 18.4249 63.5074 18.9466V26.2183C63.5074 26.74 63.9301 27.1627 64.4518 27.1627C64.9734 27.1627 65.3961 26.74 65.3961 26.2183Z" fill="#FFDC10"/>
<path d="M3.69329 48.7531H46.558C47.0797 48.7531 47.5024 48.3304 47.5024 47.8088C47.5024 47.2871 47.0797 46.8644 46.558 46.8644H3.69329C1.65645 46.8644 0 48.5212 0 50.5577C0 52.5941 1.65682 54.251 3.69329 54.251H46.558C47.0797 54.251 47.5024 53.8283 47.5024 53.3066C47.5024 52.7849 47.0797 52.3622 46.558 52.3622H3.69329C2.69829 52.3622 1.88876 51.5527 1.88876 50.5577C1.88876 49.5627 2.69867 48.7531 3.69329 48.7531Z" fill="#FFDC10"/>
<path d="M74.3285 28.7844H51.6006C50.4405 28.7844 49.4969 29.7281 49.4969 30.8885V66.4396C49.4969 67.5997 50.4405 68.5437 51.6006 68.5437H74.3285C75.4885 68.5437 76.4322 67.5997 76.4322 66.4396V30.8885C76.4322 29.7281 75.4885 28.7844 74.3285 28.7844ZM74.5434 66.4396C74.5434 66.5582 74.4467 66.6549 74.3285 66.6549H51.6006C51.4824 66.6549 51.3857 66.5582 51.3857 66.4396V30.8885C51.3857 30.7699 51.4824 30.6732 51.6006 30.6732H74.3285C74.4467 30.6732 74.5434 30.7699 74.5434 30.8885V66.4396Z" fill="#FFDC10"/>
<path d="M72.0386 31.5865H53.8902C53.1135 31.5865 52.4819 32.2182 52.4819 32.9948V61.9054C52.4819 62.682 53.1135 63.3136 53.8902 63.3136H72.0386C72.8152 63.3136 73.4468 62.682 73.4468 61.9054V32.9948C73.4468 32.2182 72.8152 31.5865 72.0386 31.5865ZM71.5581 61.4249H54.3711V33.4753H71.5581V61.4249Z" fill="#FFDC10"/>
<path d="M59.4268 54.1406C59.5655 54.2143 59.7177 54.2509 59.8692 54.2509C60.0547 54.2509 60.2394 54.1961 60.3988 54.0881L67.249 49.4455C67.5085 49.2699 67.6637 48.9771 67.6637 48.6639C67.6637 48.3508 67.5085 48.0576 67.249 47.8824L60.3988 43.2398C60.1091 43.0434 59.7351 43.0233 59.4268 43.1873C59.1178 43.3512 58.9248 43.6719 58.9248 44.0217V53.3069C58.9248 53.6559 59.1178 53.9767 59.4268 54.1406ZM60.8136 45.8021L65.0361 48.6639L60.8136 51.5258V45.8021Z" fill="white"/>
<path d="M80.1844 0.667488C79.6816 0.433282 79.1048 0.509588 78.6805 0.866187L74.4172 4.4469V2.11277C74.4172 0.947781 73.4694 0 72.3044 0H51.5042C50.3393 0 49.3915 0.947781 49.3915 2.11277V13.9391C49.3915 15.1041 50.3393 16.0518 51.5042 16.0518H72.3044C73.4694 16.0518 74.4172 15.1041 74.4172 13.9391V11.6049L78.6802 15.1857C79.1048 15.5423 79.6812 15.6186 80.1844 15.3844C80.6875 15.1498 80.9999 14.6594 80.9999 14.1045V1.94731C80.9999 1.3924 80.6875 0.902073 80.1844 0.667488ZM79.1112 13.0812L74.0799 8.85528C73.7992 8.61918 73.4064 8.56781 73.0739 8.72231C72.7411 8.87757 72.5285 9.21112 72.5285 9.5783V13.9387C72.5285 14.0622 72.428 14.1627 72.3044 14.1627H51.5042C51.3807 14.1627 51.2802 14.0622 51.2802 13.9387V2.11277C51.2802 1.98925 51.3807 1.88876 51.5042 1.88876H72.3044C72.428 1.88876 72.5285 1.98925 72.5285 2.11277V6.47355C72.5285 6.84072 72.7415 7.17428 73.0739 7.32954C73.406 7.48479 73.7992 7.43304 74.0799 7.19657L79.1112 2.97065V13.0812ZM79.8939 2.31336L79.8946 2.3126H79.895C79.8946 2.3126 79.8943 2.31298 79.8939 2.31336Z" fill="#FFDC10"/>
<path d="M65.5718 6.91513L60.7241 3.62906C60.3271 3.36048 59.8167 3.33215 59.3921 3.55729C58.9683 3.78205 58.705 4.21987 58.705 4.69999V11.2718C58.705 11.7519 58.9683 12.1897 59.3921 12.4145C59.5829 12.5157 59.7911 12.5656 59.9984 12.5656C60.2523 12.5656 60.5054 12.4908 60.7241 12.3423L65.5718 9.05661C65.9273 8.81561 66.1399 8.41557 66.1399 7.98606C66.1399 7.55656 65.9273 7.15614 65.5718 6.91513ZM60.5934 10.1491V5.82229L63.785 7.98606L60.5934 10.1491Z" fill="white"/>
<path d="M30.0482 34.683V20.5226C30.0482 19.1891 31.5392 18.3985 32.643 19.1464L43.089 26.2267C44.0621 26.8862 44.0621 28.3194 43.089 28.9786L32.643 36.0588C31.5396 36.8071 30.0482 36.0165 30.0482 34.683Z" fill="white"/>
</svg>
