<svg width="91" height="68" viewBox="0 0 91 68" fill="none" xmlns="http://www.w3.org/2000/svg">
<path d="M45.3073 50.7125C44.8354 50.7125 44.3627 50.5326 44.0025 50.172C43.2822 49.4517 43.2822 48.2833 44.0025 47.5625L50.4407 41.1244C51.161 40.404 52.3298 40.404 53.0502 41.1244C53.7705 41.8447 53.7705 43.0135 53.0502 43.7338L46.612 50.172C46.2514 50.5322 45.7791 50.7125 45.3073 50.7125Z" fill="white"/>
<path d="M48.59 49.3937C48.8855 47.5709 47.6473 45.8536 45.8245 45.5581C44.0016 45.2626 42.2844 46.5008 41.9889 48.3236C41.6934 50.1464 42.9316 51.8637 44.7544 52.1592C46.5772 52.4547 48.2945 51.2165 48.59 49.3937Z" fill="white"/>
<path d="M45.3068 34.132C37.1818 34.132 30.5716 40.7422 30.5716 48.8673C30.5716 56.9923 37.1818 63.6025 45.3068 63.6025C53.4318 63.6025 60.042 56.9923 60.042 48.8673C60.042 40.7422 53.4318 34.132 45.3068 34.132ZM45.3068 61.3143C38.4435 61.3143 32.8598 55.7306 32.8598 48.8673C32.8598 42.004 38.4435 36.4202 45.3068 36.4202C52.1701 36.4202 57.7538 42.004 57.7538 48.8673C57.7538 55.7306 52.1701 61.3143 45.3068 61.3143ZM26.4669 33.6996C26.3956 33.771 26.3804 33.8529 26.3804 33.9087C26.3804 33.9641 26.3956 34.046 26.4669 34.1174L28.3117 35.9622C28.7584 36.4093 28.7584 37.1333 28.3117 37.5799C28.0884 37.8032 27.7955 37.9149 27.5026 37.9149C27.2097 37.9149 26.9173 37.8032 26.6935 37.5799L24.8487 35.7352C24.3609 35.2473 24.0918 34.5988 24.0918 33.9087C24.0918 33.2181 24.3609 32.5696 24.8487 32.0818L28.3479 28.5826C28.8357 28.0948 29.4842 27.8257 30.1748 27.8257C30.8649 27.8257 31.5134 28.0948 32.0012 28.5826L33.8465 30.4274C34.2936 30.8741 34.2936 31.5985 33.8465 32.0452C33.4003 32.4923 32.6753 32.4923 32.2287 32.0452L30.3835 30.2004C30.3121 30.129 30.2302 30.1139 30.1748 30.1139C30.1189 30.1139 30.037 30.129 29.9656 30.2004L26.4669 33.6996ZM64.1086 34.1174C64.2235 34.0021 64.2235 33.8149 64.1086 33.6996L60.61 30.2004C60.4942 30.0846 60.307 30.0855 60.1921 30.2004L58.3469 32.0452C57.8998 32.4923 57.1758 32.4923 56.7291 32.0452C56.282 31.5981 56.282 30.8736 56.7291 30.4274L58.5744 28.5826C59.0622 28.0948 59.7107 27.8257 60.4013 27.8257C61.0914 27.8257 61.7399 28.0948 62.2277 28.5826L65.7264 32.0818C66.2143 32.5696 66.4834 33.2181 66.4834 33.9087C66.4834 34.5988 66.2143 35.2473 65.7264 35.7352L63.8817 37.5799C63.6583 37.8032 63.3654 37.9149 63.0725 37.9149C62.7797 37.9149 62.4872 37.8032 62.2634 37.5799C61.8163 37.1333 61.8163 36.4088 62.2634 35.9622L64.1086 34.1174ZM48.8146 30.0627V26.78H49.1473C51.0104 26.78 52.5261 25.2643 52.5261 23.4016V21.5857C52.5261 19.7231 51.0109 18.2074 49.1473 18.2074H41.4667C39.6036 18.2074 38.0879 19.7231 38.0879 21.5857V23.4016C38.0879 25.2643 39.6036 26.78 41.4667 26.78H41.7989V30.0627C32.9197 31.7157 26.1745 39.5158 26.1745 48.8673C26.1745 59.4173 34.7572 68 45.3072 68C55.8573 68 64.44 59.4173 64.44 48.8673C64.4395 39.5158 57.6943 31.7157 48.8146 30.0627ZM40.3761 23.4021V21.5862C40.3761 20.9853 40.8653 20.4961 41.4667 20.4961H49.1473C49.7482 20.4961 50.2379 20.9848 50.2379 21.5862V23.4021C50.2379 24.003 49.7487 24.4922 49.1473 24.4922H41.4667C40.8653 24.4918 40.3761 24.003 40.3761 23.4021ZM44.0867 26.78H46.5264V29.7775C46.1228 29.7519 45.7168 29.7345 45.3068 29.7345C44.8967 29.7345 44.4908 29.7519 44.0867 29.7775V26.78ZM45.3068 65.7118C36.0189 65.7118 28.4623 58.1552 28.4623 48.8673C28.4623 39.5794 36.0189 32.0227 45.3068 32.0227C54.5947 32.0227 62.1513 39.5794 62.1513 48.8673C62.1513 58.1552 54.5947 65.7118 45.3068 65.7118ZM90.6136 39.0947C90.6136 48.9258 82.6153 56.9241 72.7842 56.9241H66.8161C66.1841 56.9241 65.672 56.412 65.672 55.78C65.672 55.148 66.1841 54.6359 66.8161 54.6359H72.7842C81.3536 54.6359 88.3254 47.6641 88.3254 39.0947C88.3254 30.5253 81.3536 23.5536 72.7842 23.5536C72.6904 23.5536 72.597 23.5545 72.5032 23.5563C72.4964 23.5563 72.4899 23.5563 72.4826 23.5563C71.9357 23.5563 71.463 23.1678 71.3596 22.6287C69.9569 15.3357 63.5384 10.0425 56.099 10.0425C53.8551 10.0425 51.6905 10.5098 49.6654 11.4324C49.1048 11.6864 48.4426 11.4539 48.1675 10.902C45.5168 5.58921 40.1853 2.28868 34.2524 2.28868C25.683 2.28868 18.7112 9.26043 18.7112 17.8298C18.7112 19.281 18.9112 20.718 19.3053 22.1006C19.405 22.4511 19.3323 22.8273 19.1094 23.1152C18.8865 23.403 18.5373 23.5797 18.1763 23.5582C18.0609 23.5554 17.9456 23.554 17.8294 23.554C9.25997 23.5536 2.28822 30.5253 2.28822 39.0947C2.28822 47.6641 9.25997 54.6359 17.8294 54.6359H23.7966C24.4286 54.6359 24.9407 55.148 24.9407 55.78C24.9407 56.412 24.4286 56.9241 23.7966 56.9241H17.8294C7.99825 56.9241 0 48.9258 0 39.0947C0 29.6224 7.42528 21.8516 16.7603 21.2969C16.5361 20.1592 16.423 18.9982 16.423 17.8294C16.423 7.99825 24.4213 0 34.2524 0C40.6988 0 46.5264 3.39664 49.708 8.93367C51.7426 8.15019 53.8876 7.75387 56.099 7.75387C64.3173 7.75387 71.4497 13.3866 73.4039 21.2759C82.9494 21.604 90.6136 29.4709 90.6136 39.0947Z" fill="#FFDC10"/>
</svg>
