<svg width="93" height="79" viewBox="0 0 93 79" fill="none" xmlns="http://www.w3.org/2000/svg">
<path d="M4.73181 71.6947C4.56327 70.9429 3.74712 70.6203 3.01408 70.633C2.44958 70.6444 1.82506 70.835 1.48913 71.2654C1.32446 71.4889 1.25141 71.7663 1.2848 72.0414C1.34483 72.9011 2.29374 73.009 3.19416 73.0928C4.34855 73.2352 5.77654 73.5348 6.10092 74.872C6.1379 75.0527 6.15799 75.2364 6.16095 75.4207C6.16095 77.0277 4.55173 77.9644 3.04409 77.9644C1.74771 77.9644 0.174278 77.1999 0.0184352 75.7077L0.0057373 75.4781L1.23055 75.4552L1.24324 75.6342V75.586C1.32636 76.362 2.27527 76.7683 3.05564 76.7683C3.95722 76.7683 4.94191 76.2667 4.94191 75.4069C4.93995 75.3103 4.92796 75.2141 4.90613 75.12C4.76183 74.4875 3.89719 74.3796 3.0591 74.2958C1.75118 74.1649 0.213527 73.878 0.0807724 72.1344V72.147C0.0280377 71.5785 0.192937 71.0112 0.542529 70.5583C1.10703 69.8306 2.11596 69.4484 3.08219 69.4484C4.37972 69.4484 5.72459 70.1164 5.94046 71.6454L4.73181 71.6947Z" fill="#FFDC10"/>
<path d="M9.84806 69.5345C11.6605 69.5345 12.5736 70.9315 12.5736 72.3285C12.5736 73.7254 11.6605 75.1109 9.84806 75.1109H8.00104V77.8933H6.77277V69.5345H9.84806ZM9.84806 73.9171C10.8685 73.9171 11.373 73.1285 11.373 72.3399C11.373 71.5514 10.8685 70.7524 9.84806 70.7524H8.00104V73.9171H9.84806Z" fill="#FFDC10"/>
<path d="M14.1586 70.6892C14.5541 70.2884 15.0259 69.9699 15.5466 69.7526C16.0674 69.5352 16.6264 69.4232 17.1912 69.4232C17.7559 69.4232 18.315 69.5352 18.8357 69.7526C19.3564 69.9699 19.8283 70.2884 20.2237 70.6892C21.024 71.4934 21.4729 72.5791 21.4729 73.7104C21.4729 74.8418 21.024 75.9274 20.2237 76.7316C19.8281 77.1322 19.3562 77.4504 18.8355 77.6676C18.3148 77.8848 17.7558 77.9967 17.1912 77.9967C16.6265 77.9967 16.0675 77.8848 15.5468 77.6676C15.0262 77.4504 14.5542 77.1322 14.1586 76.7316C13.3583 75.9274 12.9094 74.8418 12.9094 73.7104C12.9094 72.5791 13.3583 71.4934 14.1586 70.6892ZM19.3591 71.549C18.7836 70.9727 18.0021 70.6463 17.1854 70.641C16.7844 70.6425 16.3877 70.7236 16.0186 70.8795C15.6495 71.0354 15.3154 71.263 15.0359 71.549C14.4594 72.1222 14.1355 72.8997 14.1355 73.7104C14.1355 74.5211 14.4594 75.2986 15.0359 75.8719C15.3155 76.1577 15.6496 76.3851 16.0187 76.5408C16.3878 76.6965 16.7844 76.7774 17.1854 76.7787C17.7923 76.7734 18.3843 76.5904 18.8873 76.2527C19.3903 75.915 19.7822 75.4374 20.0141 74.8797C20.2459 74.3219 20.3074 73.7086 20.191 73.1163C20.0745 72.524 19.7852 71.9789 19.3591 71.549Z" fill="#FFDC10"/>
<path d="M23.8866 73.6543H25.303C26.3247 73.6543 26.8291 72.9254 26.8291 72.1976C26.8291 71.4699 26.3247 70.7524 25.303 70.7524H23.4421V77.8933H22.2416V69.5345H25.303C27.1293 69.5345 28.0412 70.8718 28.0412 72.1976C28.0412 73.3788 27.3093 74.5014 25.8675 74.7528L28.5226 77.8933H26.9492L23.8866 74.227V73.6543Z" fill="#FFDC10"/>
<path d="M30.6721 77.9289V70.7524H28.1255V69.5345H34.4181V70.7524H31.8842V77.9289H30.6721Z" fill="#FFDC10"/>
<path d="M38.9225 71.6947C38.754 70.9429 37.9378 70.6203 37.2048 70.633C36.6403 70.6444 36.0158 70.835 35.6798 71.2654C35.5152 71.4889 35.4421 71.7663 35.4755 72.0414C35.5355 72.9011 36.4844 73.009 37.3849 73.0928C38.5393 73.2352 39.9672 73.5348 40.2916 74.872C40.3286 75.0527 40.3487 75.2364 40.3517 75.4207C40.3517 77.0277 38.7424 77.9644 37.229 77.9644C35.9315 77.9644 34.3581 77.1999 34.2022 75.7077L34.1907 75.4781L35.4155 75.4552L35.427 75.6342V75.586C35.5113 76.362 36.466 76.7683 37.2406 76.7683C38.141 76.7683 39.1268 76.2667 39.1268 75.4069C39.125 75.3102 39.1126 75.214 39.0899 75.12C38.9456 74.4875 38.081 74.3796 37.2429 74.2958C35.9338 74.1649 34.3973 73.878 34.2646 72.1344V72.147C34.2112 71.5785 34.3762 71.0109 34.7263 70.5583C35.2908 69.8306 36.2986 69.4484 37.2717 69.4484C38.5693 69.4484 39.9141 70.1164 40.13 71.6454L38.9225 71.6947Z" fill="white"/>
<path d="M42.4769 77.9289V70.7524H39.9303V69.5345H46.224V70.7524H43.6901V77.9289H42.4769Z" fill="white"/>
<path d="M48.4336 73.6543H49.8512C50.8717 73.6543 51.3761 72.9254 51.3761 72.1976C51.3761 71.4699 50.8717 70.7524 49.8512 70.7524H47.9891V77.8933H46.7886V69.5345H49.8512C51.6763 69.5345 52.5894 70.8718 52.5894 72.1976C52.5894 73.3788 51.8564 74.5014 50.4157 74.7528L53.0708 77.8933H51.4962L48.4336 74.227V73.6543Z" fill="white"/>
<path d="M54.4018 76.6869H58.3047V77.8933H53.1769V69.546H58.2932V70.7524H54.4018V73.1044H58.2089V74.3223H54.4018V76.6869Z" fill="white"/>
<path d="M63.5896 75.4334H60.5743C60.2499 76.1968 59.8297 77.2 59.5665 77.8933H58.2574L61.6317 69.4266H62.5206L65.8949 77.8933H64.5974L63.5896 75.4334ZM61.0314 74.2982H63.1209L62.0877 71.3493L61.0314 74.2982Z" fill="white"/>
<path d="M67.2755 77.8933H66.0634V69.5345H67.0481L69.8221 73.5946L72.5961 69.5345H73.5566V77.8933H72.356V72.0059L70.158 75.2544H69.4735L67.2755 72.0059V77.8933Z" fill="white"/>
<path d="M76.1632 73.1284H77.4238C78.2642 73.1284 78.5782 72.4397 78.5782 71.8865C78.5782 71.0508 77.7701 70.6686 76.9805 70.6686C76.3444 70.6686 75.6957 71.0267 75.5398 71.6718L74.4466 71.4089C74.7468 70.1463 75.8642 69.5219 76.9863 69.5219C78.3438 69.5219 79.773 70.2622 79.7845 71.8865C79.7845 72.543 79.6287 73.2237 79.0157 73.6301C79.773 74.072 80.1089 74.7527 80.0974 75.5814C80.0847 76.7867 79.0757 78.0046 77.059 78.0046C75.257 78.0046 74.4039 76.9658 74.2123 75.8236L75.3413 75.6205C75.4486 76.2885 76.0016 76.8831 77.059 76.8831C78.3912 76.8831 79.0157 76.1554 78.9557 75.4632C78.9083 74.9731 78.5239 74.2683 77.4307 74.2683H76.1632V73.1284Z" fill="#FFDC10"/>
<path d="M83.729 69.5345H85.2182L83.1645 72.4111C83.789 72.1953 84.6167 72.232 85.2055 72.5546C85.6366 72.8074 85.9926 73.1693 86.2374 73.6034C86.4821 74.0375 86.6068 74.5284 86.5988 75.026C86.5988 76.4585 85.5783 77.8956 83.5362 77.8956C81.4941 77.8956 80.4736 76.4619 80.4736 75.026C80.4807 74.431 80.6602 73.8507 80.9908 73.3547L83.729 69.5345ZM81.6869 75.0271C81.6869 75.8628 82.2999 76.6755 83.5339 76.6755C84.768 76.6755 85.3809 75.8628 85.3809 75.0271C85.3809 74.1915 84.7807 73.3558 83.5339 73.3558C82.2872 73.3558 81.6869 74.1915 81.6869 75.0271Z" fill="#FFDC10"/>
<path d="M88.1723 75.5402C88.5082 76.2209 89.0958 76.6754 89.9258 76.6754C91.1748 76.6754 91.7867 75.8398 91.7728 74.9789C91.7716 74.6666 91.6789 74.3615 91.5061 74.1007C91.3333 73.84 91.0878 73.635 90.7997 73.5107C89.8103 73.0998 88.8441 73.1997 87.8479 73.7885L87.1633 73.4786V69.4978H92.5197V70.6686H88.3881V72.3399C89.313 72.021 90.3215 72.0381 91.2349 72.3881C91.7575 72.5926 92.2058 72.9494 92.5208 73.4118C92.8358 73.8741 93.0028 74.4204 92.9999 74.9789C93.0115 76.4367 91.961 77.8933 89.9258 77.8933C88.5209 77.8933 87.5477 77.2367 87.0548 75.9947L88.1723 75.5402Z" fill="#FFDC10"/>
<path d="M15.2933 71.8979V75.4563C15.2933 75.5162 15.3086 75.5751 15.3376 75.6276C15.3667 75.6801 15.4087 75.7244 15.4596 75.7563C15.5106 75.7883 15.5688 75.8069 15.629 75.8105C15.6891 75.814 15.7492 75.8023 15.8036 75.7766L19.5623 73.9985C19.6235 73.9698 19.6752 73.9244 19.7114 73.8676C19.7476 73.8108 19.7669 73.7449 19.7669 73.6777C19.7669 73.6104 19.7476 73.5445 19.7114 73.4877C19.6752 73.4309 19.6235 73.3855 19.5623 73.3568L15.8036 71.5788C15.7491 71.5533 15.689 71.5419 15.6289 71.5456C15.5688 71.5494 15.5106 71.5681 15.4597 71.6002C15.4088 71.6322 15.3669 71.6765 15.3378 71.729C15.3087 71.7814 15.2934 71.8403 15.2933 71.9002" fill="white"/>
<path d="M26.3951 8.72735C31.6949 3.37598 39.1476 0.00354004 47.2618 0.00354004C55.458 0.00354004 62.8288 3.37942 68.2106 8.72735C73.4284 14.0799 76.8223 21.4079 76.8223 29.5589C76.8223 37.7099 73.4284 45.0379 68.2106 50.3893C65.484 53.153 62.2306 55.3484 58.6407 56.8472C55.0508 58.3459 51.1963 59.1178 47.3028 59.1178C43.4093 59.1178 39.5549 58.3459 35.965 56.8472C32.375 55.3484 29.1216 53.153 26.3951 50.3893C21.1784 45.0379 17.7845 37.7099 17.7845 29.5589C17.7845 21.4079 21.1784 14.0799 26.3951 8.72735ZM62.2493 14.6561C58.3578 10.7866 52.9749 8.39791 47.2618 8.39791C41.5488 8.39791 36.2467 10.7866 32.4372 14.6561C30.4682 16.6127 28.9063 18.9359 27.8406 21.493C26.7749 24.0501 26.2264 26.7909 26.2264 29.5589C26.2264 32.3268 26.7749 35.0676 27.8406 37.6247C28.9063 40.1818 30.4682 42.505 32.4372 44.4617C36.2467 48.3311 41.5476 50.7164 47.2618 50.7164C52.9761 50.7164 58.3578 48.3277 62.2493 44.4582C66.1765 40.4807 68.3767 35.1294 68.3767 29.5554C68.3767 23.9814 66.1765 18.6301 62.2493 14.6526" fill="#FFDC10"/>
<path d="M34.1953 17.2995V41.8168C34.1952 42.2302 34.3003 42.6368 34.5008 42.9988C34.7013 43.3609 34.9908 43.6665 35.3421 43.8873C35.6935 44.1081 36.0954 44.2369 36.5103 44.2617C36.9252 44.2864 37.3397 44.2063 37.715 44.0288L63.6323 31.7695C65.5047 30.8834 65.5047 28.233 63.6323 27.3479L37.715 15.0887C37.3398 14.9113 36.9254 14.8311 36.5106 14.8558C36.0957 14.8805 35.694 15.0092 35.3426 15.2298C34.9913 15.4505 34.7018 15.756 34.5012 16.1179C34.3006 16.4798 34.1954 16.8863 34.1953 17.2995Z" fill="white"/>
</svg>
