<svg width="13" height="13" viewBox="0 0 13 13" fill="none" xmlns="http://www.w3.org/2000/svg">
<path d="M12.6283 1.35087L12.6068 1.33745L9.89208 0L6.96195 3.90683L8.31003 5.70438C8.26969 6.38228 7.98221 7.02187 7.50201 7.50206C7.02181 7.98226 6.38222 8.26973 5.70432 8.31006L3.9068 6.96198L0 9.89205L1.32632 12.5841L1.33748 12.6068L1.35093 12.6283C1.42171 12.7423 1.5205 12.8363 1.6379 12.9014C1.7553 12.9665 1.88739 13.0004 2.02162 13H2.72212C4.07183 13 5.40833 12.7342 6.6553 12.2176C7.90227 11.7011 9.0353 10.9441 9.98969 9.98966C10.9441 9.03527 11.7011 7.90224 12.2176 6.65527C12.7342 5.4083 13 4.0718 13 2.72209V2.02155C13.0004 1.88733 12.9665 1.75524 12.9014 1.63784C12.8364 1.52044 12.7423 1.42165 12.6283 1.35087V1.35087ZM11.9968 2.72209C11.9968 7.83616 7.83616 11.9968 2.72212 11.9968H2.1553L1.26788 10.1953L3.90698 8.21595L5.3763 9.31789H5.54349C6.54424 9.31677 7.50368 8.91873 8.21131 8.21109C8.91895 7.50346 9.31699 6.54402 9.31811 5.54327V5.37608L8.21617 3.9068L10.1953 1.26785L11.9968 2.15542V2.72209Z" fill="white"/>
</svg>
