<svg width="73" height="68" viewBox="0 0 73 68" fill="none" xmlns="http://www.w3.org/2000/svg">
<path d="M0.929321 8.97974H49.0658V12.2872H0.929321V8.97974Z" fill="white"/>
<path d="M44.2443 5.81318C44.2443 6.68633 43.5366 7.39407 42.6635 7.39407C41.7903 7.39407 41.0826 6.68633 41.0826 5.81318C41.0826 4.94004 41.7903 4.2323 42.6635 4.2323C43.5366 4.2323 44.2443 4.94041 44.2443 5.81318Z" fill="white"/>
<path d="M35.6225 41.1175H1.85855V13.2165H48.1365V30.6628C48.1365 31.1761 48.5525 31.5921 49.0658 31.5921C49.5791 31.5921 49.9951 31.1761 49.9951 30.6628V0.929277C49.9951 0.415944 49.5791 0 49.0658 0H0.929277C0.415944 0 0 0.415944 0 0.929277V42.0464C0 42.5597 0.415944 42.9757 0.929277 42.9757H35.6225C36.1358 42.9757 36.5518 42.5597 36.5518 42.0464C36.5518 41.5335 36.1358 41.1175 35.6225 41.1175ZM48.1365 1.85855V11.358H1.85855V1.85855H48.1365ZM6.40272 5.81318C6.40272 5.29985 6.81866 4.88391 7.33199 4.88391H14.9989C15.5122 4.88391 15.9282 5.29985 15.9282 5.81318C15.9282 6.32651 15.5122 6.74246 14.9989 6.74246H7.33199C6.81866 6.74246 6.40272 6.32651 6.40272 5.81318ZM54.6586 32.05C44.7473 32.05 36.6838 40.1135 36.6838 50.0252C36.6838 59.9368 44.7473 68 54.6586 68C64.5702 68 72.6337 59.9365 72.6337 50.0252C72.6341 40.1135 64.5702 32.05 54.6586 32.05ZM54.6586 66.1414C45.7721 66.1414 38.5423 58.9117 38.5423 50.0252C38.5423 41.1383 45.7721 33.9086 54.6586 33.9086C63.5454 33.9086 70.7752 41.1383 70.7752 50.0252C70.7756 58.9117 63.5454 66.1414 54.6586 66.1414ZM61.7965 51.5559C61.3044 50.6281 60.5717 49.8263 59.6194 49.1736C58.7715 48.5915 57.5215 48.0243 55.7993 47.4388C54.0701 46.8512 53.4223 46.3624 53.2256 46.1806C53.0795 46.0449 52.8848 45.7881 52.8848 45.1286C52.8848 44.4239 53.1174 44.1154 53.3215 43.9243C53.6483 43.6169 54.1672 43.4675 54.9087 43.4675C55.7874 43.4675 56.1711 43.7871 56.3826 44.0273C56.7788 44.4778 56.9717 45.1327 56.9717 46.0297V46.6028C56.9717 47.3515 57.581 47.9603 58.3292 47.9603H61.039C61.7876 47.9603 62.3965 47.3515 62.3965 46.6028V46.0297C62.3965 43.8303 61.8185 42.0234 60.6799 40.6603C59.8618 39.679 58.8098 38.9835 57.5486 38.5891V36.9436C57.5486 36.195 56.9397 35.5861 56.1915 35.5861H53.7051C52.9565 35.5861 52.3476 36.195 52.3476 36.9436V38.5642C51.1619 38.9084 50.1479 39.5024 49.3301 40.3325C48.0893 41.5914 47.4604 43.2162 47.4604 45.1625C47.4604 47.0188 48.0377 48.5781 49.1758 49.7973C50.2151 50.9106 51.841 51.8031 54.1196 52.5171C55.9086 53.1371 56.5461 53.6393 56.7375 53.8267C56.9082 53.9932 57.1033 54.2582 57.1033 54.8307C57.1033 55.3343 56.9598 55.6618 56.6078 55.961C56.1815 56.3235 55.5953 56.4996 54.8169 56.4996C53.9036 56.4996 53.2524 56.2982 52.8264 55.8837C52.564 55.6287 52.2157 55.1619 52.2157 54.0556V53.4825C52.2157 52.7338 51.6064 52.125 50.8582 52.125H48.1358C47.3872 52.125 46.7783 52.7342 46.7783 53.4825V54.0556C46.7783 56.2919 47.4478 58.1166 48.7681 59.4793C49.6962 60.4372 50.8861 61.0992 52.3086 61.4512V62.8526C52.3086 63.6012 52.9178 64.21 53.6661 64.21H56.1395C56.8881 64.21 57.4969 63.6012 57.4969 62.8526V61.4055C58.7277 61.0691 59.7752 60.4822 60.616 59.6573C61.8939 58.4047 62.5414 56.7717 62.5414 54.8043C62.5403 53.5795 62.2902 52.4859 61.7965 51.5559ZM59.3139 58.3318C58.6377 58.9949 57.7597 59.4518 56.7052 59.6889C56.0766 59.8305 55.638 60.3747 55.638 61.0126V62.3526H54.1664V61.0486C54.1664 60.4059 53.7051 59.8469 53.0699 59.7187C51.8469 59.4722 50.8482 58.9566 50.1021 58.1865C49.1294 57.1828 48.6365 55.7934 48.6365 54.0564V53.9843H50.3571V54.0564C50.3571 55.3964 50.7523 56.4599 51.5306 57.217C52.3209 57.9854 53.3959 58.3589 54.8169 58.3589C56.0551 58.3589 57.0349 58.0382 57.8114 57.378C58.5857 56.7208 58.9622 55.8874 58.9622 54.8314C58.9622 53.8839 58.6511 53.0992 58.0385 52.4997C57.4189 51.8927 56.3052 51.308 54.7021 50.753C52.7398 50.1374 51.3373 49.3892 50.5344 48.5294C49.7282 47.6656 49.3189 46.533 49.3189 45.1628C49.3189 43.7225 49.768 42.5363 50.6541 41.6375C51.3095 40.9722 52.1514 40.5131 53.1568 40.2726C53.7746 40.1247 54.2062 39.582 54.2062 38.953V37.445H55.6904V38.9709C55.6904 39.5876 56.1123 40.1276 56.716 40.2838C57.7571 40.5536 58.6106 41.0807 59.2533 41.8516C60.106 42.872 60.5383 44.2778 60.5383 46.03V46.1022H58.8303V46.03C58.8303 44.661 58.4861 43.6046 57.7776 42.7995C57.0817 42.0096 56.1164 41.6093 54.9087 41.6093C53.6717 41.6093 52.7361 41.9238 52.0495 42.5694C51.3708 43.2058 51.0266 44.0667 51.0266 45.1286C51.0266 46.1549 51.3414 46.9671 51.9633 47.5444C52.5926 48.1257 53.6824 48.6826 55.2013 49.1985C56.761 49.7282 57.8623 50.2215 58.569 50.7062C59.2715 51.1875 59.8053 51.7667 60.1558 52.4268C60.5056 53.0859 60.6825 53.8858 60.6825 54.8054C60.6818 56.2554 60.2216 57.4416 59.3139 58.3318Z" fill="#FFDC10"/>
</svg>
