<svg width="71" height="69" viewBox="0 0 71 69" fill="none" xmlns="http://www.w3.org/2000/svg">
<path d="M22.8703 30.1616C21.9221 30.1616 21.3408 30.5823 21.0202 30.9355C20.5917 31.4059 20.3653 32.0023 20.3653 32.6603C20.3653 33.3194 20.5984 33.9134 21.0391 34.3768C21.3593 34.7138 21.9368 35.1157 22.8703 35.1157C23.7779 35.1157 24.3561 34.7254 24.6813 34.3985C25.1454 33.9316 25.3904 33.3306 25.3904 32.6603C25.3904 31.9918 25.1524 31.3877 24.7019 30.9141C24.2329 30.422 23.5994 30.1616 22.8703 30.1616Z" fill="white"/>
<path d="M28.1263 12.5916C26.923 11.3777 25.299 10.7621 23.299 10.7621C21.3656 10.7621 19.7328 11.3515 18.4458 12.5139C17.1252 13.7078 16.4437 15.2971 16.4206 17.239V17.2393C16.4119 17.9821 17.0114 18.5886 17.7538 18.5886H19.4549C20.1825 18.5886 20.7754 18.0055 20.788 17.2782C20.801 16.5344 21.0152 15.9783 21.4433 15.5793C21.8916 15.1617 22.4985 14.9587 23.299 14.9587C24.0522 14.9587 24.6003 15.1536 24.9738 15.5548C25.3732 15.9835 25.5671 16.6037 25.5671 17.4511C25.5671 17.8995 25.5135 18.2939 25.4085 18.6233C25.3032 18.953 25.1523 19.2585 24.9601 19.5312C24.8058 19.75 24.3914 20.2379 23.2927 21.3191C22.2119 22.3817 21.5122 23.3162 21.1534 24.1762C20.7989 25.0256 20.6151 26.0732 20.5931 27.3791V27.3795C20.5801 28.1246 21.1807 28.7357 21.9263 28.7357H23.628C24.3644 28.7357 24.9612 28.139 24.9612 27.4026V27.4022C24.9612 26.0634 25.335 25.1254 26.1446 24.4432C27.5782 23.1258 28.54 21.9757 29.0843 20.9274C29.6482 19.8403 29.9345 18.6607 29.9345 17.4221C29.9348 15.4281 29.3265 13.803 28.1263 12.5916Z" fill="white"/>
<path d="M39.6652 45.4231C39.9065 43.9251 38.8878 42.5152 37.3899 42.2739C35.892 42.0326 34.4821 43.0513 34.2408 44.5492C33.9995 46.0471 35.0182 47.457 36.5161 47.6983C38.014 47.9396 39.4239 46.921 39.6652 45.4231Z" fill="white"/>
<path d="M50.5431 45.4272C50.7844 43.9293 49.7657 42.5194 48.2678 42.2781C46.7699 42.0368 45.36 43.0555 45.1187 44.5534C44.8774 46.0513 45.8961 47.4612 47.394 47.7025C48.8919 47.9438 50.3018 46.9251 50.5431 45.4272Z" fill="white"/>
<path d="M61.4659 44.9933C61.5129 43.4757 60.3208 42.2072 58.8031 42.1602C57.2855 42.1131 56.0171 43.3053 55.97 44.8229C55.923 46.3405 57.1151 47.609 58.6328 47.656C60.1504 47.7031 61.4188 46.5109 61.4659 44.9933Z" fill="white"/>
<path d="M70.2443 5.66104C69.7781 5.44404 69.244 5.51474 68.8509 5.84515L64.9007 9.16288V7.00018C64.9007 5.92075 64.0226 5.04258 62.9431 5.04258H43.6706C42.5912 5.04258 41.713 5.92075 41.713 7.00018V17.9579C41.713 19.0373 42.5912 19.9155 43.6706 19.9155H62.9431C64.0226 19.9155 64.9007 19.0373 64.9007 17.9579V15.7952L68.8506 19.1129C69.244 19.4433 69.7781 19.514 70.2443 19.297C70.7105 19.0797 71 18.6254 71 18.1112V6.84687C71 6.33271 70.7105 5.8784 70.2443 5.66104ZM69.25 17.163L64.5882 13.2475C64.3281 13.0287 63.9641 12.9811 63.6561 13.1246C63.3478 13.2685 63.1507 13.5775 63.1507 13.9178V17.9579C63.1507 18.0724 63.0576 18.1655 62.9431 18.1655H43.6706C43.5562 18.1655 43.4631 18.0724 43.4631 17.9579V7.00018C43.4631 6.88572 43.5562 6.79262 43.6706 6.79262H62.9431C63.0576 6.79262 63.1507 6.88572 63.1507 7.00018V11.0407C63.1507 11.3809 63.3481 11.6899 63.6561 11.8338C63.9638 11.9773 64.3281 11.9294 64.5882 11.7106L69.25 7.79505V17.163ZM1.75004 23.1779C1.75004 27.4655 3.01218 31.603 5.39994 35.1437C5.55534 35.3743 5.59244 35.6652 5.49864 35.927L2.79727 43.4984L10.3519 40.803C10.614 40.7092 10.9066 40.7463 11.138 40.9038C14.2804 43.0423 17.945 44.3055 21.7359 44.5575C22.2179 44.5897 22.5829 45.0066 22.5507 45.4886C22.5199 45.9509 22.1353 46.3055 21.6789 46.3055C21.6589 46.3055 21.6397 46.3048 21.6197 46.3037C17.6671 46.0412 13.8411 44.7619 10.5262 42.5989L1.64679 45.7668C1.32898 45.8799 0.973025 45.8008 0.734319 45.5614C0.494913 45.3223 0.41546 44.967 0.528863 44.6485L3.70344 35.7503C1.27893 32.0031 0 27.6661 0 23.1776C0 10.3974 10.3974 0 23.1779 0C29.5751 0 35.5312 2.54982 39.9486 7.17973C40.2822 7.52939 40.2692 8.08311 39.9196 8.41666C39.5706 8.75022 39.0162 8.73762 38.6826 8.38761C34.5984 4.10735 29.0924 1.75004 23.1779 1.75004C11.3627 1.75039 1.75004 11.3627 1.75004 23.1779ZM47.8221 21.7653C35.0418 21.7653 24.6445 32.1627 24.6445 44.9429C24.6445 57.7231 35.0418 68.1205 47.8221 68.1205C52.3431 68.1205 56.7077 66.823 60.4735 64.3642L69.3529 67.5321C69.671 67.6462 70.0266 67.5661 70.2653 67.3267C70.5047 67.0876 70.5842 66.7323 70.4708 66.4138L67.2959 57.5156C69.7207 53.7687 70.9997 49.4318 70.9997 44.9429C71 32.1627 60.6026 21.7653 47.8221 21.7653ZM65.501 57.692L68.2027 65.2634L60.6481 62.5683C60.386 62.4745 60.093 62.5116 59.862 62.6691C56.3038 65.0908 52.1405 66.3708 47.8224 66.3708C36.0072 66.3708 26.3949 56.7585 26.3949 44.9432C26.3949 33.128 36.0072 23.5157 47.8224 23.5157C59.6377 23.5157 69.2503 33.128 69.2503 44.9432C69.2503 49.2312 67.9882 53.3687 65.6001 56.909C65.4443 57.1393 65.4072 57.4302 65.501 57.692Z" fill="#FFDC10"/>
</svg>
